<?xml version="1.0" encoding="UTF-8"?>
<svg version="1.1" xmlns="http://www.w3.org/2000/svg" width="200" height="200">
<path d="M0 0 C66 0 132 0 200 0 C200 66 200 132 200 200 C134 200 68 200 0 200 C0 134 0 68 0 0 Z " fill="#FDFDFD" transform="translate(0,0)"/>
<path d="M0 0 C42.9 0 85.8 0 130 0 C130 29.7 130 59.4 130 90 C87.1 90 44.2 90 0 90 C0 60.3 0 30.6 0 0 Z " fill="#FDFDFD" transform="translate(35,46)"/>
<path d="M0 0 C0.495 1.485 0.495 1.485 1 3 C1.66 3 2.32 3 3 3 C3 5.64 3 8.28 3 11 C26.76 11 50.52 11 75 11 C75 15.62 75 20.24 75 25 C71.7 25 68.4 25 65 25 C65 54.7 65 84.4 65 115 C68.3 115 71.6 115 75 115 C75 119.62 75 124.24 75 129 C55.2 129 35.4 129 15 129 C19.66117919 134.32706193 24.30543862 139.46270755 29.3125 144.4375 C29.93189453 145.06076172 30.55128906 145.68402344 31.18945312 146.32617188 C31.78306641 146.91849609 32.37667969 147.51082031 32.98828125 148.12109375 C33.78552612 148.91664673 33.78552612 148.91664673 34.59887695 149.72827148 C35.99388405 151.10943585 35.99388405 151.10943585 38 152 C38 152.99 38 153.98 38 155 C33.06235688 154.61701257 30.80237323 152.19450099 27.6484375 148.6875 C26.6220025 147.60070351 25.59462801 146.5147937 24.56640625 145.4296875 C22.96908477 143.72124375 21.38083307 142.00642784 19.80908203 140.27441406 C18.27847659 138.59723573 16.71684654 136.95427631 15.1484375 135.3125 C14.69592621 134.79582764 14.24341492 134.27915527 13.77719116 133.74682617 C8.69050253 128.51016825 6.45549347 129.76868122 -2 129 C-2 138.57 -2 148.14 -2 158 C-3.32 158 -4.64 158 -6 158 C-6 148.43 -6 138.86 -6 129 C-16.39616757 129.94510614 -18.63271237 130.19657559 -25 137 C-26.61030595 138.6136517 -28.22100267 140.2269135 -29.83203125 141.83984375 C-32.35460774 144.41410423 -34.86880775 146.99578346 -37.37304688 149.58789062 C-38.18451172 150.41353516 -38.99597656 151.23917969 -39.83203125 152.08984375 C-40.56139893 152.84128662 -41.2907666 153.59272949 -42.04223633 154.36694336 C-44 156 -44 156 -47 156 C-46.875 153.8125 -46.875 153.8125 -46 151 C-44.57110877 149.73348277 -43.13249207 148.47303692 -41.61328125 147.31640625 C-39.03148909 145.20971385 -37.09496761 142.57842168 -35 140 C-32.51967074 137.39565428 -30.06516272 135.05183398 -27.25 132.8125 C-24.92512612 131.19690923 -24.92512612 131.19690923 -24 129 C-43.47 129 -62.94 129 -83 129 C-83 124.38 -83 119.76 -83 115 C-79.7 115 -76.4 115 -73 115 C-73 85.3 -73 55.6 -73 25 C-76.3 25 -79.6 25 -83 25 C-83 20.38 -83 15.76 -83 11 C-59.24 11 -35.48 11 -11 11 C-11 8.36 -11 5.72 -11 3 C-8.03125145 -1.86874762 -5.19627613 -1.19914065 0 0 Z M-69 25 C-69 54.7 -69 84.4 -69 115 C-26.1 115 16.8 115 61 115 C61 85.3 61 55.6 61 25 C18.1 25 -24.8 25 -69 25 Z " fill="#1E1E1E" transform="translate(104,21)"/>
<path d="M0 0 C0.495 1.485 0.495 1.485 1 3 C1.66 3 2.32 3 3 3 C3 5.64 3 8.28 3 11 C26.76 11 50.52 11 75 11 C75 19 75 19 73.87608624 20.97745228 C71.17525601 22.44952096 69.05425166 22.36851367 65.98262024 22.36076355 C64.09587082 22.36694954 64.09587082 22.36694954 62.17100525 22.3732605 C60.77456451 22.36264305 59.37812594 22.35173862 57.98168945 22.34057617 C56.5132855 22.33973008 55.04488027 22.34020469 53.57647705 22.34190369 C49.58700171 22.34276578 45.597796 22.32510553 41.60838342 22.30418181 C37.44036739 22.28545062 33.27234545 22.28366739 29.10429382 22.28010559 C21.21011489 22.27077464 13.31606033 22.2461467 5.42193621 22.21605712 C-3.56464375 22.18254573 -12.55122959 22.16603532 -21.53785646 22.15097082 C-40.0253082 22.11959803 -58.51264411 22.06681718 -77 22 C-77 22.66 -77 23.32 -77 24 C-75.68 24.33 -74.36 24.66 -73 25 C-76.3 25 -79.6 25 -83 25 C-83 20.38 -83 15.76 -83 11 C-59.24 11 -35.48 11 -11 11 C-11 8.36 -11 5.72 -11 3 C-8.03125145 -1.86874762 -5.19627613 -1.19914065 0 0 Z " fill="#2A2A2A" transform="translate(104,21)"/>
<path d="M0 0 C50.16 0 100.32 0 152 0 C152 1.98 152 3.96 152 6 C101.84 6 51.68 6 0 6 C0 4.02 0 2.04 0 0 Z " fill="#F7F7F7" transform="translate(24,140)"/>
<path d="M0 0 C50.16 0 100.32 0 152 0 C152 1.98 152 3.96 152 6 C101.84 6 51.68 6 0 6 C0 4.02 0 2.04 0 0 Z " fill="#F6F6F6" transform="translate(24,36)"/>
<path d="M0 0 C49.5 0 99 0 150 0 C150 0.33 150 0.66 150 1 C131.52 1 113.04 1 94 1 C94 1.66 94 2.32 94 3 C113.8 3 133.6 3 154 3 C154 3.33 154 3.66 154 4 C134.2 4 114.4 4 94 4 C98.66117919 9.32706193 103.30543862 14.46270755 108.3125 19.4375 C108.93189453 20.06076172 109.55128906 20.68402344 110.18945312 21.32617188 C111.07987305 22.2146582 111.07987305 22.2146582 111.98828125 23.12109375 C112.51977783 23.6514624 113.05127441 24.18183105 113.59887695 24.72827148 C114.99388405 26.10943585 114.99388405 26.10943585 117 27 C117 27.99 117 28.98 117 30 C112.06235688 29.61701257 109.80237323 27.19450099 106.6484375 23.6875 C105.6220025 22.60070351 104.59462801 21.5147937 103.56640625 20.4296875 C101.96908477 18.72124375 100.38083307 17.00642784 98.80908203 15.27441406 C97.27847659 13.59723573 95.71684654 11.95427631 94.1484375 10.3125 C93.69592621 9.79582764 93.24341492 9.27915527 92.77719116 8.74682617 C87.69050253 3.51016825 85.45549347 4.76868122 77 4 C77 13.57 77 23.14 77 33 C75.68 33 74.36 33 73 33 C73 23.43 73 13.86 73 4 C62.60383243 4.94510614 60.36728763 5.19657559 54 12 C52.38969405 13.6136517 50.77899733 15.2269135 49.16796875 16.83984375 C46.64539226 19.41410423 44.13119225 21.99578346 41.62695312 24.58789062 C40.81548828 25.41353516 40.00402344 26.23917969 39.16796875 27.08984375 C38.43860107 27.84128662 37.7092334 28.59272949 36.95776367 29.36694336 C35 31 35 31 32 31 C32.125 28.8125 32.125 28.8125 33 26 C34.42889123 24.73348277 35.86750793 23.47303692 37.38671875 22.31640625 C39.96851091 20.20971385 41.90503239 17.57842168 44 15 C46.48032926 12.39565428 48.93483728 10.05183398 51.75 7.8125 C54.07487388 6.19690923 54.07487388 6.19690923 55 4 C35.53 4 16.06 4 -4 4 C-4 3.67 -4 3.34 -4 3 C15.8 2.67 35.6 2.34 56 2 C37.52 1.67 19.04 1.34 0 1 C0 0.67 0 0.34 0 0 Z " fill="#303030" transform="translate(25,146)"/>
<path d="M0 0 C49.5 0 99 0 150 0 C150 0.33 150 0.66 150 1 C106.935 1.495 106.935 1.495 63 2 C67.95 2.495 67.95 2.495 73 3 C73 3.33 73 3.66 73 4 C71.948125 3.98646484 71.948125 3.98646484 70.875 3.97265625 C69.92625 4.00230469 68.9775 4.03195313 68 4.0625 C67.071875 4.07410156 66.14375 4.08570313 65.1875 4.09765625 C55.82292897 6.74865614 48.18262051 17.80219982 41.62695312 24.58789062 C40.81548828 25.41353516 40.00402344 26.23917969 39.16796875 27.08984375 C38.43860107 27.84128662 37.7092334 28.59272949 36.95776367 29.36694336 C35 31 35 31 32 31 C32.125 28.8125 32.125 28.8125 33 26 C34.42889123 24.73348277 35.86750793 23.47303692 37.38671875 22.31640625 C39.96851091 20.20971385 41.90503239 17.57842168 44 15 C46.48032926 12.39565428 48.93483728 10.05183398 51.75 7.8125 C54.07487388 6.19690923 54.07487388 6.19690923 55 4 C35.53 4 16.06 4 -4 4 C-4 3.67 -4 3.34 -4 3 C15.8 2.67 35.6 2.34 56 2 C37.52 1.67 19.04 1.34 0 1 C0 0.67 0 0.34 0 0 Z " fill="#3D3D3D" transform="translate(25,146)"/>
<path d="M0 0 C0.66 0 1.32 0 2 0 C2 1.98 2 3.96 2 6 C-1.63 6 -5.26 6 -9 6 C-9 35.37 -9 64.74 -9 95 C-9.66 95 -10.32 95 -11 95 C-11.33 65.63 -11.66 36.26 -12 6 C-12.66 5.67 -13.32 5.34 -14 5 C-14 4.34 -14 3.68 -14 3 C-13.07316406 2.95101562 -12.14632812 2.90203125 -11.19140625 2.8515625 C-9.99386719 2.77679688 -8.79632813 2.70203125 -7.5625 2.625 C-6.36753906 2.55539063 -5.17257813 2.48578125 -3.94140625 2.4140625 C-2.97074219 2.27742188 -2.00007812 2.14078125 -1 2 C-0.67 1.34 -0.34 0.68 0 0 Z " fill="#030303" transform="translate(177,40)"/>
<path d="M0 0 C-4.79814496 5.75622865 -9.90697513 11.12271382 -15.1875 16.4375 C-15.99380859 17.26443359 -16.80011719 18.09136719 -17.63085938 18.94335938 C-18.40623047 19.72388672 -19.18160156 20.50441406 -19.98046875 21.30859375 C-21.03077271 22.37291626 -21.03077271 22.37291626 -22.10229492 23.45874023 C-24 25 -24 25 -27 25 C-26.875 22.8125 -26.875 22.8125 -26 20 C-24.57110877 18.73348277 -23.13249207 17.47303692 -21.61328125 16.31640625 C-19.03148909 14.20971385 -17.09496761 11.57842168 -15 9 C-5.79754601 -0.66257669 -5.79754601 -0.66257669 0 0 Z " fill="#2C2C2C" transform="translate(84,152)"/>
<path d="M0 0 C0 1.65 0 3.3 0 5 C-19.8 5 -39.6 5 -60 5 C-60 4.34 -60 3.68 -60 3 C-58.95763435 2.98786972 -58.95763435 2.98786972 -57.89421082 2.97549438 C-51.34630457 2.89756343 -44.79859775 2.81027747 -38.25095654 2.71247292 C-34.88471284 2.66252038 -31.51850037 2.61619053 -28.15209961 2.578125 C-24.2822002 2.53257165 -20.41265975 2.47456059 -16.54296875 2.4140625 C-15.33352097 2.40251129 -14.12407318 2.39096008 -12.87797546 2.37905884 C-11.19657219 2.3492543 -11.19657219 2.3492543 -9.48120117 2.31884766 C-8.49302902 2.30552399 -7.50485687 2.29220032 -6.48674011 2.2784729 C-3.8909102 1.98778378 -2.36533622 0 0 0 Z " fill="#010101" transform="translate(179,144)"/>
<path d="M0 0 C0.33 0.66 0.66 1.32 1 2 C2.24523437 2.29197266 2.24523437 2.29197266 3.515625 2.58984375 C8.73439986 4.7019264 11.91309775 8.53144918 15.75 12.5625 C17.26360645 14.12825592 18.77913616 15.69215565 20.296875 17.25390625 C20.96041992 17.94814697 21.62396484 18.6423877 22.30761719 19.35766602 C23.91589848 21.08376404 23.91589848 21.08376404 26 22 C26 22.99 26 23.98 26 25 C21.11881369 24.56534748 19.06274491 22.53204888 15.69921875 19.08984375 C15.2179805 18.60294571 14.73674225 18.11604767 14.24092102 17.61439514 C12.71342979 16.06460092 11.20047252 14.50145808 9.6875 12.9375 C8.6513209 11.88124806 7.6142209 10.82589867 6.57617188 9.77148438 C4.04003105 7.1913578 1.51673541 4.5990748 -1 2 C-0.67 1.34 -0.34 0.68 0 0 Z " fill="#1E1E1E" transform="translate(116,151)"/>
<path d="M0 0 C-3.50897269 4.18423892 -7.08060535 8.19588166 -11 12 C-11.99 11.67 -12.98 11.34 -14 11 C-11.19545875 4.37108432 -7.4305782 -0.19554153 0 0 Z " fill="#282828" transform="translate(84,152)"/>
<path d="M0 0 C3.3 0 6.6 0 10 0 C10 0.33 10 0.66 10 1 C8.35 1 6.7 1 5 1 C5 1.66 5 2.32 5 3 C4.34 3 3.68 3 3 3 C3.32960216 8.01535052 3.32960216 8.01535052 6 12 C5.67 12.33 5.34 12.66 5 13 C3.35 13 1.7 13 0 13 C0 8.71 0 4.42 0 0 Z " fill="#0B0B0B" transform="translate(21,136)"/>
<path d="M0 0 C1.67542976 0.28604898 3.34385343 0.61781233 5 1 C5 3.31 5 5.62 5 8 C3.02 8 1.04 8 -1 8 C-1.04241723 5.66705225 -1.04092937 3.33297433 -1 1 C-0.67 0.67 -0.34 0.34 0 0 Z " fill="#EDEDED" transform="translate(98,24)"/>
<path d="M0 0 C-0.99 0.66 -1.98 1.32 -3 2 C-2.01 2.66 -1.02 3.32 0 4 C-1.32 4.33 -2.64 4.66 -4 5 C-4.33 7.31 -4.66 9.62 -5 12 C-5.33 12 -5.66 12 -6 12 C-6.33 10.02 -6.66 8.04 -7 6 C-7.33 7.98 -7.66 9.96 -8 12 C-8.33 12 -8.66 12 -9 12 C-9.48539326 4.71910112 -9.48539326 4.71910112 -7.3125 1.5 C-4.62023779 -0.24633224 -3.14839906 -0.34982212 0 0 Z " fill="#404040" transform="translate(102,20)"/>
<path d="M0 0 C8 2 8 2 11 5 C11 5.99 11 6.98 11 8 C8.087425 7.91433603 6.43201976 7.42089045 4.33203125 5.375 C2.83908228 3.61608625 1.39563738 1.83686981 0 0 Z " fill="#292929" transform="translate(131,168)"/>
<path d="M0 0 C7.48291572 6.15034169 7.48291572 6.15034169 10 10 C1.89669421 8.01239669 1.89669421 8.01239669 0 5 C-0.1875 2.3125 -0.1875 2.3125 0 0 Z " fill="#171717" transform="translate(127,160)"/>
<path d="M0 0 C1 2 1 2 0.3125 5.0625 C-1 8 -1 8 -3.125 8.875 C-3.74375 8.91625 -4.3625 8.9575 -5 9 C-4.5206753 4.68607774 -3.2542015 2.83430453 0 0 Z " fill="#434343" transform="translate(62,168)"/>
<path d="M0 0 C0.66 0 1.32 0 2 0 C2 0.66 2 1.32 2 2 C2.99 2 3.98 2 5 2 C5 2.66 5 3.32 5 4 C6.32 4.33 7.64 4.66 9 5 C5.7 5 2.4 5 -1 5 C-0.67 3.35 -0.34 1.7 0 0 Z " fill="#161616" transform="translate(22,41)"/>
<path d="M0 0 C0.33 0.66 0.66 1.32 1 2 C3.52733235 2.65555119 3.52733235 2.65555119 6 3 C5.34 4.32 4.68 5.64 4 7 C2.35 5.02 0.7 3.04 -1 1 C-0.67 0.67 -0.34 0.34 0 0 Z " fill="#2C2C2C" transform="translate(116,151)"/>
</svg>
